<svg width="18" height="18" viewBox="0 0 18 18" fill="none" xmlns="http://www.w3.org/2000/svg">
<path d="M8.99268 16.9502L8.28557 16.2431L12.1747 12.354C12.3699 12.1587 12.6865 12.1587 12.8818 12.354C13.077 12.5493 13.077 12.8658 12.8818 13.0611L8.99268 16.9502Z" fill="#484848"/>
<path d="M9.69971 16.2432L8.9926 16.9503L5.10351 13.0612C4.90825 12.8659 4.90825 12.5493 5.10351 12.3541C5.29878 12.1588 5.61536 12.1588 5.81062 12.3541L9.69971 16.2432Z" fill="#484848"/>
<path d="M8.99268 1.05078L9.69978 1.75789L5.8107 5.64698C5.61543 5.84224 5.29885 5.84224 5.10359 5.64698C4.90833 5.45171 4.90833 5.13513 5.10359 4.93987L8.99268 1.05078Z" fill="#484848"/>
<path d="M8.28564 1.75781L8.99275 1.05071L12.8818 4.93979C13.0771 5.13506 13.0771 5.45164 12.8818 5.6469C12.6866 5.84216 12.37 5.84216 12.1747 5.6469L8.28564 1.75781Z" fill="#484848"/>
</svg>
